<svg width="18" height="18" viewBox="0 0 18 18" fill="none" xmlns="http://www.w3.org/2000/svg">
<rect width="18" height="18" rx="6.075" fill="#FF8533"/>
<rect width="18" height="18" rx="6.075" fill="black" fill-opacity="0.01"/>
<g filter="url(#filter1_d_400_2887)">
<path fill-rule="evenodd" clip-rule="evenodd" d="M8.6902 8.73227C8.68608 8.7279 8.68008 8.72154 8.66625 8.72761L7.9091 9.11698C7.90512 9.11903 7.8997 9.12902 7.90445 9.14024C7.97183 9.29938 8.47929 10.5295 8.35807 11.1993C8.35807 11.1993 8.15401 12.1873 7.71066 12.8827L7.71037 12.8833C7.69715 12.9075 7.221 13.779 6.24546 13.6848C6.2401 13.6843 6.22764 13.6848 6.22764 13.6974L6.14389 14.3961C6.14389 14.3961 9.27551 14.3909 11.6501 14.3909C11.5989 14.0627 11.5403 13.6058 11.5295 13.5204C11.5283 13.5112 11.5247 13.5068 11.5124 13.5098C11.3224 13.5524 9.4224 13.9494 9.4224 12.7859C9.4224 12.7191 9.43093 12.2022 9.54191 11.8046C9.78285 10.9423 10.5212 10.1979 10.596 10.1242C10.5997 10.1202 10.6018 10.1105 10.5997 10.1013L10.4551 9.07605C10.4535 9.07044 10.444 9.05905 10.4297 9.0716C10.3065 9.22448 9.67184 9.97081 9.35542 9.53702L8.69091 8.73302L8.6902 8.73227Z" fill="white"/>
<path fill-rule="evenodd" clip-rule="evenodd" d="M6.37821 9.6672C6.21351 9.49699 5.35104 9.05819 3.94141 9.85658C3.94141 9.85658 4.71346 10.9715 4.9815 11.2331C5.24954 11.4947 5.61608 11.7474 6.27002 11.5477L6.27382 11.5468C6.30859 11.5387 6.57353 11.4719 6.6971 11.3013C6.74959 11.235 6.78352 11.1329 6.79886 11.0083C6.82066 10.6769 6.80053 10.0263 6.37821 9.6672Z" fill="white"/>
<path fill-rule="evenodd" clip-rule="evenodd" d="M13.9699 8.56628C13.4879 8.48574 12.9753 8.47065 12.4934 8.58352C12.361 8.61518 12.2421 8.65984 12.1185 8.7378C11.8546 8.90276 11.702 9.17868 11.5799 9.47993C11.5788 9.48324 11.5766 9.4894 11.5734 9.4981C11.5354 9.60228 11.3643 10.0716 11.457 10.3983C11.5408 10.7085 12.1575 10.8611 12.2621 10.8839C12.4759 10.9297 12.5579 10.9375 12.655 10.9467C12.663 10.9475 12.6711 10.9482 12.6793 10.949C12.7465 10.9531 12.7738 10.9515 12.8035 10.9499C12.8084 10.9496 12.8133 10.9493 12.8185 10.949C13.2438 10.927 14.1737 10.5428 14.7336 8.70888C14.7353 8.70124 14.0277 8.57612 13.9699 8.56628Z" fill="white"/>
<path fill-rule="evenodd" clip-rule="evenodd" d="M5.62376 4.2538C5.62376 4.2538 4.22529 3.80884 3.94141 3.60393C3.94141 3.60393 4.25731 8.93305 7.16761 8.71873C7.38985 8.70645 7.60575 8.66875 7.79285 8.63233C8.0189 8.57726 8.11373 8.55185 8.3728 8.4341C8.50318 8.36718 8.61409 8.29094 8.7106 8.17489C9.03232 7.83775 9.03487 7.02284 8.98068 6.60941C8.95274 6.3646 8.9138 6.2045 8.84607 6.02153C8.40186 4.99742 7.56518 4.77742 6.46915 4.48922C6.20211 4.419 5.91967 4.34473 5.62376 4.2538Z" fill="white"/>
<path fill-rule="evenodd" clip-rule="evenodd" d="M11.5011 8.03461C11.7434 7.93232 13.8354 7.04938 12.0113 3.60393C12.0113 3.60393 8.67394 5.1731 9.96461 7.77459C10.0985 8.017 10.1406 8.05862 10.2227 8.1396C10.2309 8.14772 10.2396 8.15624 10.2487 8.1654C10.5181 8.44606 11.3067 8.13332 11.4902 8.03921C11.4933 8.0379 11.4969 8.03637 11.5011 8.03461Z" fill="white"/>
</g>
<defs>
<filter id="filter1_d_400_2887" x="2.81641" y="3.04143" width="13.0421" height="13.0422" filterUnits="userSpaceOnUse" color-interpolation-filters="sRGB">
<feFlood flood-opacity="0" result="BackgroundImageFix"/>
<feColorMatrix in="SourceAlpha" type="matrix" values="0 0 0 0 0 0 0 0 0 0 0 0 0 0 0 0 0 0 127 0" result="hardAlpha"/>
<feOffset dy="0.5625"/>
<feGaussianBlur stdDeviation="0.5625"/>
<feComposite in2="hardAlpha" operator="out"/>
<feColorMatrix type="matrix" values="0 0 0 0 0 0 0 0 0 0 0 0 0 0 0 0 0 0 0.08 0"/>
<feBlend mode="normal" in2="BackgroundImageFix" result="effect1_dropShadow_400_2887"/>
<feBlend mode="normal" in="SourceGraphic" in2="effect1_dropShadow_400_2887" result="shape"/>
</filter>
</defs>
</svg>
